<!DOCTYPE svg PUBLIC "-//W3C//DTD SVG 1.1//EN" "http://www.w3.org/Graphics/SVG/1.1/DTD/svg11.dtd">
<!-- Uploaded to: SVG Repo, www.svgrepo.com, Transformed by: SVG Repo Mixer Tools -->
<svg fill="#ffffff" version="1.1" id="Capa_1" xmlns="http://www.w3.org/2000/svg" xmlns:xlink="http://www.w3.org/1999/xlink" width="800px" height="800px" viewBox="0 0 97.408 97.408" xml:space="preserve" stroke="#ffffff">
<g id="SVGRepo_bgCarrier" stroke-width="0"/>
<g id="SVGRepo_tracerCarrier" stroke-linecap="round" stroke-linejoin="round"/>
<g id="SVGRepo_iconCarrier"> <g> <g> <path d="M70.201,88.258l-48.979,0.031l0.122-73.418h-6.518c-1.444,0-2.614,1.17-2.614,2.614v77.309 c0,1.444,1.17,2.614,2.614,2.614h52.739c0.008,0,0.017,0,0.021,0c1.443,0,2.613-1.17,2.613-2.614 C70.2,94.682,70.201,88.258,70.201,88.258z"/> <path d="M85.19,2.614C85.19,1.17,84.021,0,82.577,0H29.841c-1.443,0-2.613,1.17-2.613,2.614v77.309 c0,1.444,1.17,2.614,2.613,2.614h52.741c0.692,0,1.356-0.275,1.849-0.766c0.489-0.49,0.766-1.155,0.766-1.849L85.19,2.614z"/> </g> </g> </g>
</svg>